<svg width="261" height="261" viewBox="0 0 261 261" fill="none" xmlns="http://www.w3.org/2000/svg">
<path d="M205.088 30.2719C206.729 28.0509 209.866 27.5735 212.023 29.2986C234.943 47.6357 251.026 73.2306 257.564 101.947C264.473 132.291 260.268 164.107 245.711 191.614C231.155 219.121 207.213 240.493 178.238 251.848C149.262 263.202 117.174 263.784 87.8052 253.49C58.4362 243.195 33.7347 222.706 18.1891 195.746C2.64355 168.786 -2.71457 137.143 3.08835 106.568C8.89128 75.993 25.4702 48.514 49.8126 29.1242C72.849 10.7747 101.392 0.822084 130.745 0.808366C133.506 0.807075 135.659 3.13911 135.554 5.89855L131.424 114.609C131.237 119.526 137.518 121.727 140.442 117.77L205.088 30.2719Z" fill="#65995C"/>
</svg>
